<svg xmlns="http://www.w3.org/2000/svg" width="150" height="50" viewBox="0 0 150 50"><path fill-rule="evenodd" clip-rule="evenodd" d="M133.313 26.984c-.607 1.101-.83 1.341-1.134 1.341-.303 0-.51-.734-.51-2.505 0-1.867.319-2.378.783-2.378.303 0 .606.176.862.574v2.968zm-1.166 4.005h-1.309c-.192 0-.303.144-.271.335l.08.558c.032.208.128.255.271.287a7.983 7.983 0 0 0 1.565.159c1.597 0 2.682-.415 2.682-3.048v-6.878c0-.176-.112-.272-.272-.272h-.814c-.144 0-.24.08-.288.224l-.16.447a1.988 1.988 0 0 0-1.565-.766c-1.405 0-2.299 1.293-2.299 3.814 0 2.872.59 3.989 1.932 3.989.591 0 1.277-.287 1.661-1.037v.479c.001 1.422-.063 1.709-1.213 1.709m-25.912-5.17c0-2.92-.798-3.862-2.569-3.862-1.708 0-2.777 1.005-2.777 4.404 0 3.766 1.276 4.293 2.745 4.293.941 0 2.043-.558 2.617-1.356.128-.176.128-.287.016-.415l-.303-.367c-.08-.096-.144-.128-.24-.128-.335 0-.782.798-1.835.798-.83 0-1.085-.67-1.085-2.075v-.128l3.096-.303c.224-.016.335-.112.335-.287v-.574zm-2.617-2.601c.542 0 .75.591.75 2.282l-1.564.128c0-2.027.383-2.41.814-2.41m-14.263 2.601c0-2.92-.798-3.862-2.569-3.862-1.708 0-2.777 1.005-2.777 4.404 0 3.766 1.277 4.293 2.745 4.293.941 0 2.042-.558 2.617-1.356.128-.176.128-.287.016-.415l-.303-.367c-.08-.096-.144-.128-.24-.128-.335 0-.782.798-1.835.798-.83 0-1.085-.67-1.085-2.075v-.128l3.096-.303c.224-.016.335-.112.335-.287v-.574zm-2.617-2.601c.543 0 .75.591.75 2.282l-1.564.128c.001-2.027.384-2.41.814-2.41m-6.844 7.771h-1.309c-.192 0-.303.144-.272.335l.08.558c.032.208.128.255.271.287a7.967 7.967 0 0 0 1.564.159c1.596 0 2.681-.415 2.681-3.048v-6.878c0-.176-.112-.272-.271-.272h-.814c-.144 0-.24.08-.287.224l-.159.447a1.988 1.988 0 0 0-1.564-.766c-1.405 0-2.298 1.293-2.298 3.814 0 2.872.59 3.989 1.931 3.989a1.84 1.84 0 0 0 1.66-1.037v.479c0 1.422-.064 1.709-1.213 1.709m1.165-4.005c-.606 1.101-.83 1.341-1.133 1.341-.303 0-.511-.734-.511-2.505 0-1.867.319-2.378.782-2.378.303 0 .606.176.862.574v2.968zm-4.006 3.399c.16-.016.24-.128.24-.271v-.574c0-.128-.064-.24-.224-.272l-.798-.176v-4.612c0-1.58-.782-2.505-2.442-2.505-1.069 0-2.042.591-2.649 1.404-.127.176-.112.367.032.478l.479.399c.175.159.303.096.463-.08.415-.479.814-.814 1.372-.814.606 0 .894.383.894 1.229v.782h-.367c-1.34 0-2.92.638-2.92 2.888 0 1.628.686 2.393 1.835 2.393.942 0 1.404-.702 1.739-1.276l.096.941c.016.176.144.255.335.239l1.915-.173zm-2.633-3.702v1.229c-.559 1.037-.846 1.245-1.021 1.245-.239 0-.383-.271-.383-1.101 0-1.021.431-1.372 1.037-1.372h.367zm-10.979-.862c0-2.92-.798-3.862-2.569-3.862-1.708 0-2.777 1.005-2.777 4.404 0 3.766 1.277 4.293 2.745 4.293.941 0 2.043-.558 2.617-1.356.128-.176.128-.287.016-.415l-.303-.367c-.08-.096-.144-.128-.239-.128-.335 0-.782.798-1.835.798-.83 0-1.085-.67-1.085-2.075v-.128l3.096-.303c.224-.016.335-.112.335-.287v-.574zm-2.618-2.601c.543 0 .75.591.75 2.282l-1.564.128c.001-2.027.384-2.41.814-2.41m-9.803.654v3.942c-.622 1.101-.878 1.34-1.149 1.34-.335 0-.527-.782-.527-3 0-2.17.351-2.713.814-2.713.304.001.623.16.862.431m1.851-4.26c0-.207-.143-.287-.335-.271l-2.298.192c-.16.016-.239.127-.239.271v.574c0 .128.064.24.223.272l.798.176v1.644c-.271-.24-.686-.431-1.245-.431-1.404 0-2.346 1.293-2.346 4.34 0 3.208.702 4.277 1.979 4.277.766 0 1.34-.303 1.883-1.324l.112.989c.016.176.144.255.335.239l1.915-.176c.16-.016.239-.128.239-.271v-.574c0-.128-.064-.24-.223-.272l-.798-.176v-9.479zm75.656 9.462v-3.973c0-2.154-.559-3.144-1.804-3.144-.766 0-1.342.303-1.885 1.324l-.112-.989c-.016-.176-.144-.255-.335-.239l-1.916.175c-.16.016-.24.128-.24.272v.574c0 .128.064.239.224.271l.798.176v6.511c0 .24.144.447.447.447h.958a.428.428 0 0 0 .448-.447v-5.234c.622-1.101.878-1.34 1.15-1.34.271 0 .415.367.415 1.851v4.979c0 .207.144.287.336.271l2.299-.191c.16-.016.24-.128.24-.272v-.574c0-.128-.064-.239-.224-.271l-.799-.177zm-8.689 1.245c.016.176.144.255.335.239l1.915-.176c.16-.016.24-.128.24-.271v-.574c0-.128-.064-.24-.224-.272l-.798-.176v-6.766c0-.207-.144-.287-.335-.271l-2.027.191c-.159.016-.239.128-.239.271v.638c0 .128.064.24.223.272l.527.111v4.277c-.622 1.101-.878 1.34-1.149 1.34s-.415-.367-.415-1.851v-4.979c0-.207-.144-.287-.335-.271l-2.027.191c-.16.016-.239.128-.239.271v.638c0 .128.063.24.223.272l.527.111v3.974c0 2.154.558 3.144 1.803 3.144.766 0 1.34-.303 1.883-1.324l.112.991zm-8.407-6.814h-.67c-.16 0-.271-.096-.271-.271v-.83c0-.176.112-.272.271-.272h.67l.399-1.803c.048-.224.144-.335.319-.367l.766-.175c.255-.064.367.112.367.271v2.074h1.229c.16 0 .271.096.271.272v.83c0 .176-.112.271-.271.271h-1.229v5.011c0 .59.08.67.24.67s.367-.08.686-.319c.128-.096.287-.08.383.064l.303.431a.311.311 0 0 1 .016.383c-.048.08-.176.207-.239.271-.399.399-.974.638-1.66.638-.957 0-1.58-.558-1.58-2.042v-5.107zm-1.942-1.181c0-.207-.143-.287-.335-.271l-2.298.191c-.16.016-.239.128-.239.271v.574c0 .128.063.24.223.272l.798.175v6.75c0 .207.144.287.335.271l2.298-.191c.16-.016.24-.128.24-.272v-.574c0-.128-.064-.239-.224-.271l-.798-.176v-6.749zm-.75-.941c.607 0 .846-.239.846-.894v-.271c0-.67-.239-.894-.846-.894h-.43c-.607 0-.846.224-.846.894v.271c0 .654.239.894.846.894h.43zm-8.434 1.021c0-.176-.111-.272-.271-.272h-4.117c-.176 0-.272.112-.272.272v.846c0 .176.112.271.272.271h2.441l-2.569 5.075c-.128.207-.191.383-.191.606v1.006c0 .176.111.271.271.271h4.182c.176 0 .271-.111.271-.271v-.846c0-.176-.111-.271-.271-.271h-2.49l2.554-5.059c.112-.192.191-.447.191-.766v-.862zm-43.599-.08c0-.207-.144-.287-.335-.271l-2.298.191c-.16.016-.239.128-.239.271v.574c0 .128.064.24.223.272l.798.175v6.75c0 .207.144.287.335.271l2.298-.191c.16-.016.239-.128.239-.272v-.574c0-.128-.064-.239-.223-.271l-.798-.176v-6.749zm10.325 1.181h-.67c-.16 0-.271-.096-.271-.271v-.83c0-.176.112-.272.271-.272h.67l.399-1.803c.048-.224.144-.335.319-.367l.766-.175c.255-.064.367.112.367.271v2.074h1.357c.159 0 .271.096.271.272v.83c0 .176-.112.271-.271.271h-1.357v5.011c0 .59.08.67.239.67s.367-.08.686-.319c.127-.096.287-.08.383.064l.303.431a.311.311 0 0 1 .016.383c-.048.08-.175.207-.239.271-.399.399-.973.638-1.66.638-.958 0-1.58-.558-1.58-2.042v-5.107zm-11.074-2.122c.606 0 .846-.239.846-.894v-.271c0-.67-.239-.894-.846-.894h-.431c-.606 0-.846.224-.846.894v.271c0 .654.239.894.846.894h.431zm39.074 6.766c0-2.681-2.952-2.378-2.952-3.973 0-.479.24-.814.734-.814.351 0 .703.112 1.197.383.176.096.303.048.383-.08l.367-.638c.08-.143.064-.271-.064-.367a3.433 3.433 0 0 0-2.09-.702c-1.5 0-2.41.926-2.41 2.378 0 2.617 2.921 2.393 2.921 3.973 0 .543-.272.91-.782.91-.447 0-.798-.096-1.325-.383-.223-.128-.367-.064-.463.111l-.303.527c-.112.191-.08.367.096.478.59.431 1.293.702 2.154.702 1.596 0 2.537-.973 2.537-2.505m-76.313-8.908c.392-.645-.474-.122-.65.003-.24.228.129.663.391.403l.259-.406zm2.717 5.285c-.008-.268-.075-.417-.254-.123-.145.239-.28.27-.425.418-.268.274.075.625.378.371a.873.873 0 0 0 .301-.666m-.715-2.554c-.279 0-.574-.023-.914-.17-.306-.05-.641.147-1.166.718-.269.292-.456.801-.49 1.134-.113 1.114.909 1.335 1.736.893.354-.189.745-.742.869-1.062.133-.342.18-1.141.072-1.433-.009-.029-.055-.08-.107-.08m-2.287-1.389c-.048-.31-.504-.749-.9-.732-.475.02-1.252.424-1.688 1.224-.025.24.015.253.107.615.084.331.095.671.044 1.022.076.421.632.489.926.48.344-.01 1.014-1.159 1.252-1.218.23-.155.326-.962.259-1.391m-3.065-.252c.192-.333.158-.376-.196-.263-.239.076-.383.165-.498.359-.163.275.012.501.289.349.191-.106.342-.333.405-.445m5.522 6.356c-.042-.658-.357-1.69-1.378-1.31-.446.166-.468.731-.684 1.046-.242.35-.517.544-.497.992.016.363.395 1.205 1.021 1.042.605-.159.605-.426.896-.706.316-.16.494-.53.642-1.064m-5.664-4.489a1.094 1.094 0 0 0-.295-.891c-.043-.041-.071-.049-.148-.043-.372.041-.588.002-.974-.125-.214-.04-1.079.375-1.309.707-.336.487-.268 1.771.285 2.011.322.14 1.082-.029 1.32-.153.356-.185 1.022-.862 1.121-1.506m1.193 1.596c.592.139.58.915.81 1.033.309.158.802.429.651 1.238-.344 1.308.039 1.806.21 2.523-.044.549-.17.929-.667 1.521-.331.395-1.381.97-1.966.525-.522-.395-.826-1.092-.877-1.217a.032.032 0 0 0-.025-.022c-.121-.021-.854-.158-1.113-.385-.231-.203-.677-.907-.776-1.091-.011-.017-.013-.028-.039-.031-.184-.008-.341.093-.64-.001-.518-.161-1.216-.72-1.224-1.217-.01-.671 1.014-1.669 1.612-1.843.582-.169 1.511-.264 1.511-.264.583-.411 1.437-.615 1.437-.615s.745-.237 1.096-.154m4.657-2.791c.129-.411.043-.433-.233-.229-.078.058-.386.278-.432.333-.125.33.277.625.525.326.034-.069.118-.359.14-.43m14.507 9.33c.16-.016.239-.128.239-.272v-.574c0-.128-.064-.239-.224-.271l-.798-.176v-4.611c0-1.58-.782-2.505-2.442-2.505-1.069 0-2.042.59-2.649 1.404-.127.176-.111.367.032.478l.479.399c.176.159.303.096.463-.08.415-.479.814-.814 1.372-.814.606 0 .894.383.894 1.229v.782h-.367c-1.34 0-2.92.638-2.92 2.888 0 1.628.686 2.393 1.835 2.393.942 0 1.404-.702 1.739-1.276l.096.942c.016.175.144.255.335.239l1.916-.175zm-2.633-3.702v1.229c-.559 1.037-.846 1.245-1.021 1.245-.239 0-.383-.271-.383-1.101 0-1.021.431-1.372 1.037-1.372h.367zm11.505 3.899c.607 0 .846-.239.846-.894v-.271c0-.67-.239-.894-.846-.894h-.431c-.607 0-.846.224-.846.894v.271c0 .655.239.894.846.894h.431zm-3.251-8.176c0-.176-.111-.271-.271-.271h-4.12c-.176 0-.272.112-.272.271v.846c0 .176.112.271.272.271h2.443l-2.571 5.075c-.128.207-.191.383-.191.606v1.005c0 .176.111.271.271.271h4.184c.176 0 .271-.112.271-.271v-.846c0-.176-.111-.272-.271-.272h-2.491l2.555-5.058c.112-.192.191-.447.191-.766v-.861zm-15.643 1.101h-.67c-.159 0-.271-.096-.271-.271v-.83c0-.176.112-.271.271-.271h.67l.399-1.803c.048-.224.143-.335.319-.367l.766-.176c.255-.064.367.112.367.271v2.074h1.357c.159 0 .271.096.271.271v.83c0 .176-.112.271-.271.271h-1.357v5.011c0 .59.08.67.239.67.16 0 .367-.08.686-.319.127-.096.287-.08.383.064l.303.431a.311.311 0 0 1 .016.383c-.048.08-.176.207-.239.271-.399.399-.973.638-1.66.638-.958 0-1.58-.558-1.58-2.042v-5.106z"/></svg>