<svg width="97" height="80" xmlns="http://www.w3.org/2000/svg"><path d="M95.246 77.368L84.22 52.396l-18.087-3.46-17.54 3.46-2.689-.532 10.89-24.706q1.503-3.592 1.503-6.919 0-7.097-5.126-12.087t-12.324-4.99q-7.29 0-12.415 4.99T23.307 20.24q0 3.15 1.412 6.609l10.069 22.798-3.645-.71-18.178 3.46L1.939 77.368l23.873-4.524 22.78 4.524 22.78-4.524 23.874 4.524zm-5.878-3.193L70.78 70.36l-.547-2.706-3.645 3.549-4.92.976 7.836-7.63-.683-3.149-12.028 11.71-4.83.976 16.22-15.79-.729-3.105-18.862 18.363v1.197l-22.187-4.39-2.278.487 2.733-2.661 1.003-4.79-8.657 8.427-4.966 1.109 14.762-14.371 1.002-4.79L9.411 73.908l-1.595.266 1.686-4.258 19.682-19.073 1.595-.355 4.738.887 5.33 12.11 4.374-10.202 3.371.665v.71l.82-.888 4.875-.931-5.695 5.544V62.2l10.525-10.246 4.966-1.02-15.49 15.08v3.726L66.77 52.042l-.365-1.553 14.762 3.194 8.2 20.492zM49.504 20.239q0 3.46-2.552 5.944t-6.105 2.484q-3.599 0-6.173-2.484T32.1 20.239q0-3.548 2.574-6.054t6.173-2.506q3.554 0 6.105 2.528t2.552 6.032zM24.218 51.864l-12.21 11.887 2.415-6.076 4.783-4.746 5.012-1.065z"/></svg>