<?xml version="1.0" encoding="utf-8"?><svg xmlns="http://www.w3.org/2000/svg" xmlns:xlink="http://www.w3.org/1999/xlink"><defs><svg viewBox="0 0 1792 1792" id="chevron-down"><path d="M1683 808l-742 741q-19 19-45 19t-45-19L109 808q-19-19-19-45.5t19-45.5l166-165q19-19 45-19t45 19l531 531 531-531q19-19 45-19t45 19l166 165q19 19 19 45.5t-19 45.5z"/></svg><svg viewBox="0 0 1792 1792" id="chevron-up"><path d="M1683 1331l-166 165q-19 19-45 19t-45-19L896 965l-531 531q-19 19-45 19t-45-19l-166-165q-19-19-19-45.5t19-45.5l742-741q19-19 45-19t45 19l742 741q19 19 19 45.5t-19 45.5z"/></svg><svg viewBox="0 0 1792 1792" id="facebook"><path d="M1343 12v264h-157q-86 0-116 36t-30 108v189h293l-39 296h-254v759H734V905H479V609h255V391q0-186 104-288.5T1115 0q147 0 228 12z"/></svg><svg viewBox="0 0 1792 1792" id="file-text"><path d="M1596 380q28 28 48 76t20 88v1152q0 40-28 68t-68 28H224q-40 0-68-28t-28-68V96q0-40 28-68t68-28h896q40 0 88 20t76 48zm-444-244v376h376q-10-29-22-41l-313-313q-12-12-41-22zm384 1528V640h-416q-40 0-68-28t-28-68V128H256v1536h1280zM512 800q0-14 9-23t23-9h704q14 0 23 9t9 23v64q0 14-9 23t-23 9H544q-14 0-23-9t-9-23v-64zm736 224q14 0 23 9t9 23v64q0 14-9 23t-23 9H544q-14 0-23-9t-9-23v-64q0-14 9-23t23-9h704zm0 256q14 0 23 9t9 23v64q0 14-9 23t-23 9H544q-14 0-23-9t-9-23v-64q0-14 9-23t23-9h704z"/></svg><svg viewBox="0 0 311.81 73.701" id="logo-taz"><path d="M31.875 32.278c.153 0 .638.382.867.791.484-.077.459.408.637.561.281.229.663.434.791.663.459.893.179.969.484 1.352-.077.076 0 .561 0 .611 0 .408.025.638 0 .663a.92.92 0 0 0-.102.229c0 .076.204.969.536 1.249 0 .689.765 1.582.765 1.965 0 .051.357.688.357.918 0 .484-.102.51-.102.662 0 .127.025.281.025.459 0 .127 0 .357-.025.434-.102.281-.612 1.199-.688 1.402-.332.842-1.097 1.402-1.53 1.402-.255 0-.255.281-.51.281-.102 0-.994.484-1.351.484-.383 0-.434.102-.995.102-.153 0-1.173-.357-1.173-.816 0-.051-.867-.51-.867-1.529 0-.791-.306-.842-1.097-.842-.459 0-1.912-.816-2.116-.816-.153 0-.791-1.045-.841-1.197-.229-.535-.688-.383-.841-.535-.229.229-.51.33-.663.33-1.02 0-1.454-.713-1.555-.943-.026-.076-.586-.51-.586-.969 0-.102-.281-.637-.281-1.045 0-.179.561-1.53.714-1.759.051-.077.204-.153.255-.229.816-1.352 1.402-1.198 1.581-1.275.127-.051.077-.229.357-.229.077 0 .025-.102.332-.102.28 0 .51-.459 1.581-.459.893 0 2.397-1.504 3.009-1.504.127 0 .306-.281.918-.281.102 0 .841-.357 1.071-.357.354-.003.788.329 1.043.329zm-3.953-5.788c.434 0 .459.127.638.127.127 0 .255.178.382.229.484.306.663 1.071.663 1.351 0 .204-.153.586-.153.995 0 .484-1.147 2.167-1.683 2.422-.484.229-1.275.357-1.428.408-.306.127-.179.204-1.02.204-1.02 0-1.504-1.479-1.504-1.607 0-.127-.025-.331 0-.638.025-.357-.025-.51 0-.739.077-.739.281-.459.281-.841 0-.332.867-.995.943-1.071.127-.102.943-.74 1.224-.74.051 0 .179-.153.382-.153.357 0 .74.051 1.173.051h.102zm1.531-1.708a4.539 4.539 0 0 0-.612.739c-.28.536-1.071.102-.765-.434a2.514 2.514 0 0 1 1.045-.943c.408-.178.714.179.332.638zm4.614-1.505c.025.102.051.077.306.077.357 0 .994.688 1.147 1.173.127.433.051.943.051 1.402l-.229 1.479c-.229.026-.739 1.301-1.071 1.326 0 .306-.102-.051-.255.459-.026.102-.077 0-.127.025-.077.051-.306.536-.663.536-.153 0-.255-.026-.408 0-.127.025-.102.102-.459.102h-.051c-.127 0-1.811-.357-1.811-2.091v-.178c0-.357-.102-.51-.102-.688 0-.332-.102-.612.051-1.071.536-1.607.714-1.198.816-1.428.332-.714 1.581-1.122 2.32-1.122.307-.001.23.025.485-.001zm1.326-.611c-.458.561-1.3-.128-.841-.714l.765-.561c.102-.127.204-.179.306-.179.204 0 .357.179.153.612l-.383.842zm4.717 3.238c.051.025-.025.102.178.102.077 0 .051.102.204.153.281.127.612 1.071.612 1.3 0 .025.229.229.229 1.071v.077c0 .79-.076.867-.076.943 0 .076-.408.484-.434.969-.051-.025-1.096 1.275-1.122 1.326-.025.077-.663.434-1.504.434-.638 0-1.25-.153-1.53-.178-.051-.026-1.504-.918-1.504-2.015 0-.867.714-2.091 1.071-2.83.663-1.377 1.887-1.581 2.269-1.581.077 0 .127.025.204 0 .127-.026.229-.102.382-.102.282-.001.97.305 1.021.331zm-.051 7.343c.077 0 1.403.562 1.403 1.989v.943c0 .484-.281.714-.332.739-.051.025-.255.739-.306.815-.434.688-1.938 1.352-2.04 1.352-.229 0-.485-.076-.714-.051-1.224.076-1.81-1.097-1.81-1.403 0-.688.663-1.428.663-1.657 0-.102.255-.383.331-.383.153 0 .179-.841.688-1.325 1.071-1.021 1.658-1.046 1.683-1.046.026.052.333.027.434.027zm.969-8.338c-.332.663-1.275.153-.943-.484l.688-.765c.331-.637.892-.306.535.383l-.28.866zm.892 8.109c-.535.51-1.3-.306-.765-.816.434-.383.637-.357.816-.893.229-.714.586-.102.586.255a2.112 2.112 0 0 1-.637 1.454zm12.659 13.334c-2.015 0-3.582-.8-3.582-4.126V32.44h-2.239v-2.751h2.239v-4.637l3.454-.512v5.149h3.262v2.751h-3.262v9.179c0 1.312.288 1.728 1.471 1.728.416 0 .959-.064 1.567-.16l.224 2.687c-.863.254-2.046.478-3.134.478zm9.436.032c-2.526 0-4.445-2.079-4.445-5.117 0-3.103 2.431-5.021 8.155-5.021h.96v-.512c0-2.239-.352-3.518-2.814-3.518-1.535 0-3.23.512-4.958 1.087l-.671-2.526c2.047-.832 4.157-1.375 6.108-1.375 4.126 0 5.821 1.311 5.821 5.469v11.226h-2.846l-.352-1.887c-1.888 1.598-3.007 2.174-4.958 2.174zm3.518-7.452c-3.582 0-4.414.8-4.414 2.175 0 1.312.832 2.335 1.983 2.335 1.119 0 2.11-.576 3.582-1.983v-2.526h-1.151zm7.197 7.164V44.24l5.597-11.609h-5.405v-2.942h9.563v1.887l-5.597 11.578h5.821v2.942H74.73zm14.106 0v-4.285h3.901v4.285h-3.901zM97.596 26.621v-3.582h3.486v3.582h-3.486zm0 19.478V29.691h3.486v16.407h-3.486zm15.992 0V36.056c0-1.887-.608-3.454-2.111-3.454-.928 0-1.951.576-3.23 1.791v11.706h-3.486V29.691h2.878l.352 1.887c2.111-1.759 3.198-2.175 4.798-2.175 2.559 0 4.285 1.983 4.285 5.693v11.002h-3.486zm11.036.255c-2.015 0-3.582-.8-3.582-4.126v-9.786h-2.239v-2.751h2.239v-4.637l3.454-.512v5.149h3.262v2.751h-3.262v9.179c0 1.312.288 1.728 1.471 1.728.416 0 .96-.064 1.567-.16l.224 2.687c-.864.255-2.048.478-3.134.478zm11.258 0c-4.51 0-6.364-2.526-6.364-8.379 0-5.725 2.559-8.571 6.748-8.571 3.614 0 5.948 2.495 5.948 7.196 0 .672-.031 1.632-.096 2.367h-9.051c0 3.166.991 4.478 3.326 4.478 1.215 0 3.166-.32 4.894-.832l.64 2.495c-2.142.863-4.062 1.246-6.045 1.246zm2.879-10.266c0-2.143-.736-3.87-2.783-3.87-2.078 0-2.878 2.015-2.942 4.062h5.726v-.192zm13.338-3.102c-1.279 0-1.983.512-3.326 1.791v11.322h-3.486V29.691h2.91l.32 2.111c1.951-2.079 2.59-2.399 3.869-2.399h.704v3.582h-.991zm12.026 13.113V36.056c0-1.887-.607-3.454-2.111-3.454-.928 0-1.951.576-3.23 1.791v11.706h-3.486V29.691h2.878l.352 1.887c2.111-1.759 3.199-2.175 4.797-2.175 2.559 0 4.287 1.983 4.287 5.693v11.002h-3.487zm10.619.288c-2.525 0-4.445-2.079-4.445-5.117 0-3.103 2.432-5.021 8.156-5.021h.959v-.512c0-2.239-.352-3.518-2.814-3.518-1.535 0-3.23.512-4.957 1.087l-.672-2.526c2.047-.832 4.158-1.375 6.109-1.375 4.125 0 5.82 1.311 5.82 5.469V46.1h-2.848l-.352-1.887c-1.886 1.598-3.005 2.174-4.956 2.174zm3.518-7.452c-3.582 0-4.412.8-4.412 2.175 0 1.312.83 2.335 1.982 2.335 1.119 0 2.111-.576 3.582-1.983v-2.526h-1.152zm12.187 7.419c-2.016 0-3.582-.8-3.582-4.126v-9.786h-2.238v-2.751h2.238v-4.637l3.455-.512v5.149h3.262v2.751h-3.262v9.179c0 1.312.287 1.728 1.471 1.728.416 0 .959-.064 1.566-.16l.225 2.687c-.863.255-2.047.478-3.135.478zm5.631-19.733v-3.582h3.486v3.582h-3.486zm0 19.478V29.691h3.486v16.407h-3.486zm13.272.255h-.096c-4.477 0-6.748-2.398-6.748-8.411 0-5.149 2.207-8.54 6.941-8.54h.096c4.477 0 6.748 2.399 6.748 8.412 0 5.149-2.207 8.539-6.941 8.539zm.064-13.912c-2.494 0-3.357 2.238-3.357 5.437 0 3.294.832 5.405 3.326 5.405s3.357-2.207 3.357-5.405c0-3.294-.832-5.437-3.326-5.437zm18.648 13.657V36.056c0-1.887-.607-3.454-2.111-3.454-.928 0-1.951.576-3.23 1.791v11.706h-3.486V29.691h2.879l.352 1.887c2.111-1.759 3.199-2.175 4.797-2.175 2.559 0 4.287 1.983 4.287 5.693v11.002h-3.488zm10.62.288c-2.525 0-4.445-2.079-4.445-5.117 0-3.103 2.432-5.021 8.156-5.021h.959v-.512c0-2.239-.352-3.518-2.814-3.518-1.535 0-3.23.512-4.957 1.087l-.672-2.526c2.047-.832 4.158-1.375 6.109-1.375 4.125 0 5.82 1.311 5.82 5.469V46.1h-2.848l-.352-1.887c-1.886 1.598-3.005 2.174-4.956 2.174zm3.517-7.452c-3.582 0-4.412.8-4.412 2.175 0 1.312.83 2.335 1.982 2.335 1.119 0 2.111-.576 3.582-1.983v-2.526h-1.152zm8.285 7.164V23.327l3.486-.512v23.283h-3.486z"/></svg><svg viewBox="0 0 1792 1792" id="twitter"><path d="M1684 408q-67 98-162 167 1 14 1 42 0 130-38 259.5T1369.5 1125 1185 1335.5t-258 146-323 54.5q-271 0-496-145 35 4 78 4 225 0 401-138-105-2-188-64.5T285 1033q33 5 61 5 43 0 85-11-112-23-185.5-111.5T172 710v-4q68 38 146 41-66-44-105-115t-39-154q0-88 44-163 121 149 294.5 238.5T884 653q-8-38-8-74 0-134 94.5-228.5T1199 256q140 0 236 102 109-21 205-78-37 115-142 178 93-10 186-50z"/></svg></defs></svg>